<svg xmlns="http://www.w3.org/2000/svg" xmlns:xlink="http://www.w3.org/1999/xlink" width="500" zoomAndPan="magnify" viewBox="0 0 375 374.999991" height="500" preserveAspectRatio="xMidYMid meet" version="1.0"><defs><g/><clipPath id="4123ffdc16"><path d="M 131.25 131.25 L 243.75 131.25 L 243.75 243.75 L 131.25 243.75 Z M 131.25 131.25 " clip-rule="nonzero"/></clipPath><clipPath id="fbd5794be4"><path d="M 187.5 131.25 C 156.433594 131.25 131.25 156.433594 131.25 187.5 C 131.25 218.566406 156.433594 243.75 187.5 243.75 C 218.566406 243.75 243.75 218.566406 243.75 187.5 C 243.75 156.433594 218.566406 131.25 187.5 131.25 Z M 187.5 131.25 " clip-rule="nonzero"/></clipPath><clipPath id="ed535b53c6"><path d="M 187.5 0 C 83.945312 0 0 83.945312 0 187.5 C 0 291.054688 83.945312 375 187.5 375 C 291.054688 375 375 291.054688 375 187.5 C 375 83.945312 291.054688 0 187.5 0 Z M 187.5 0 " clip-rule="nonzero"/></clipPath></defs><rect x="-37.5" width="450" fill="#ffffff" y="-37.499999" height="449.999989" fill-opacity="1"/><rect x="-37.5" width="450" fill="#ffffff" y="-37.499999" height="449.999989" fill-opacity="1"/><g clip-path="url(#4123ffdc16)"><g clip-path="url(#fbd5794be4)"><path fill="#081c31" d="M 131.25 131.25 L 243.75 131.25 L 243.75 243.75 L 131.25 243.75 Z M 131.25 131.25 " fill-opacity="1" fill-rule="nonzero"/></g></g><g clip-path="url(#ed535b53c6)"><rect x="-37.5" width="450" fill="#7798ad" y="-37.499999" height="449.999989" fill-opacity="1"/></g><path stroke-linecap="butt" transform="matrix(0.75, 0, 0, 0.75, 54.841796, 42.102192)" fill="none" stroke-linejoin="miter" d="M 121.414072 298.108556 L 60.606776 297.816889 L 30.497399 266.551262 L 32.585941 228.514801 L 78.617194 226.712718 L 81.570319 247.103344 L 104.268237 250.629386 L 104.268237 214.900217 L 56.502609 214.900217 L 28.768232 180.967923 L 29.632815 113.967919 L 61.835943 81.264791 L 127.028655 83.639792 L 150.950532 110.441877 L 150.013032 153.806463 L 105.778654 152.368963 L 102.53907 130.24917 L 82.148444 129.025211 L 78.90886 167.134589 L 135.601572 170.952297 L 156.497407 199.842924 L 155.054699 264.46272 Z M 121.414072 298.108556 " stroke="#ffffff" stroke-width="22.131525" stroke-opacity="1" stroke-miterlimit="4"/><g fill="#ff3131" fill-opacity="1"><g transform="translate(71.986326, 262.602177)"><g><path d="M 73.921875 3.09375 L 28.328125 2.875 L 5.75 -20.578125 L 7.296875 -49.125 L 41.828125 -50.453125 L 44.046875 -35.1875 L 61.078125 -32.53125 L 61.078125 -59.3125 L 25.234375 -59.3125 L 4.421875 -84.765625 L 5.09375 -135 L 29.21875 -159.5625 L 78.125 -157.796875 L 96.046875 -137.65625 L 95.390625 -105.125 L 62.1875 -106.234375 L 59.75 -122.828125 L 44.484375 -123.71875 L 42.046875 -95.171875 L 84.546875 -92.28125 L 100.25 -70.59375 L 99.140625 -22.125 Z M 73.921875 3.09375 "/></g></g></g><path stroke-linecap="butt" transform="matrix(0.75, 0, 0, 0.75, 187.499992, 39.361169)" fill="none" stroke-linejoin="miter" d="M 151.072937 300.403877 L 101.218767 299.164294 L 94.072933 208.424705 L 79.718766 205.143454 L 81.244807 294.429919 L 25.125012 295.013252 L 27.822929 85.174696 L 125.708352 82.768446 L 149.03127 113.815323 L 149.614604 169.356994 L 129.932311 185.758036 L 149.614604 207.841371 Z M 79.718766 171.106994 L 95.531267 169.065327 L 97.062517 134.08095 L 76.729182 133.789283 Z M 79.718766 171.106994 " stroke="#ffffff" stroke-width="22.390499" stroke-opacity="1" stroke-miterlimit="4"/><g fill="#ff3131" fill-opacity="1"><g transform="translate(197.378898, 262.861155)"><g><path d="M 103.4375 1.796875 L 66.046875 0.890625 L 60.671875 -67.171875 L 49.9375 -69.640625 L 51.046875 -2.6875 L 8.953125 -2.234375 L 10.96875 -159.640625 L 84.40625 -161.4375 L 101.875 -138.15625 L 102.328125 -96.5 L 87.546875 -84.1875 L 102.328125 -67.625 Z M 49.9375 -95.15625 L 61.796875 -96.734375 L 62.921875 -122.921875 L 47.6875 -123.15625 Z M 49.9375 -95.15625 "/></g></g></g></svg>